<svg width="50" height="50" viewBox="0 0 50 50" fill="none" xmlns="http://www.w3.org/2000/svg">
<path d="M34.625 6.22918C34.3831 5.98667 34.0957 5.79426 33.7793 5.66297C33.463 5.53169 33.1238 5.46411 32.7813 5.46411C32.4387 5.46411 32.0995 5.53169 31.7832 5.66297C31.4668 5.79426 31.1794 5.98667 30.9375 6.22918L13.625 23.5417C13.4319 23.7344 13.2786 23.9634 13.1741 24.2154C13.0696 24.4674 13.0157 24.7376 13.0157 25.0104C13.0157 25.2833 13.0696 25.5535 13.1741 25.8055C13.2786 26.0575 13.4319 26.2864 13.625 26.4792L30.9375 43.7917C31.9583 44.8125 33.6042 44.8125 34.625 43.7917C35.6458 42.7709 35.6458 41.125 34.625 40.1042L19.5417 25L34.6458 9.89585C35.6458 8.89585 35.6458 7.22918 34.625 6.22918Z" fill="#FB8C00"/>
</svg>
