<svg width="35" height="35" viewBox="0 0 35 35" fill="none" xmlns="http://www.w3.org/2000/svg">
<path d="M11.7687 18.2919L23.9597 29.9075C24.1631 30.1014 24.4333 30.2096 24.7144 30.2096C24.9954 30.2096 25.2656 30.1014 25.469 29.9075L25.4822 29.8944C25.5811 29.8004 25.6599 29.6872 25.7137 29.5618C25.7676 29.4364 25.7954 29.3013 25.7954 29.1649C25.7954 29.0284 25.7676 28.8933 25.7137 28.7679C25.6599 28.6425 25.5811 28.5293 25.4822 28.4353L14.0022 17.4978L25.4822 6.5647C25.5811 6.4707 25.6599 6.35754 25.7137 6.23213C25.7676 6.10671 25.7954 5.97165 25.7954 5.83517C25.7954 5.69868 25.7676 5.56362 25.7137 5.43821C25.6599 5.31279 25.5811 5.19964 25.4822 5.10564L25.469 5.09251C25.2656 4.8986 24.9954 4.79043 24.7144 4.79043C24.4333 4.79043 24.1631 4.8986 23.9597 5.09251L11.7687 16.7081C11.6615 16.8103 11.5762 16.9331 11.5178 17.0693C11.4595 17.2054 11.4294 17.3519 11.4294 17.5C11.4294 17.6481 11.4595 17.7946 11.5178 17.9308C11.5762 18.0669 11.6615 18.1897 11.7687 18.2919Z" fill="black"/>
</svg>
