<svg width="50" height="50" viewBox="0 0 50 50" fill="none" xmlns="http://www.w3.org/2000/svg">
<g clip-path="url(#clip0_9_13)">
<path d="M50 25.554C50 23.5043 49.8298 22.0086 49.4615 20.4575H25.5103V29.7087H39.5691C39.2858 32.0077 37.7552 35.47 34.3537 37.7965L34.306 38.1063L41.879 43.8392L42.4037 43.8903C47.2222 39.5416 50 33.1433 50 25.554Z" fill="#175EC6"/>
<path d="M25.5103 49.9286C32.3979 49.9286 38.1802 47.7126 42.4037 43.8903L34.3537 37.7965C32.1996 39.2646 29.3083 40.2894 25.5103 40.2894C18.7643 40.2894 13.0387 35.9409 10.9977 29.9303L10.6985 29.9552L2.82405 35.9103L2.72107 36.1901C6.91604 44.3333 15.5328 49.9286 25.5103 49.9286Z" fill="#34A853"/>
<path d="M10.9976 29.9303C10.4591 28.3792 10.1474 26.7172 10.1474 25C10.1474 23.2826 10.4591 21.6207 10.9693 20.0697L10.955 19.7393L2.98189 13.6885L2.72102 13.8097C0.992074 17.189 0 20.9837 0 25C0 29.0163 0.992074 32.8108 2.72102 36.1901L10.9976 29.9303Z" fill="#FBBC05"/>
<path d="M25.5103 9.71043C30.3004 9.71043 33.5317 11.7324 35.3741 13.4221L42.5737 6.55287C38.152 2.53661 32.3979 0.0714417 25.5103 0.0714417C15.5328 0.0714417 6.91604 5.66648 2.72107 13.8097L10.9693 20.0697C13.0387 14.0591 18.7643 9.71043 25.5103 9.71043Z" fill="#EB4335"/>
</g>
<defs>
<clipPath id="clip0_9_13">
<rect width="50" height="50" fill="white"/>
</clipPath>
</defs>
</svg>
