<svg width="16" height="16" viewBox="0 0 16 16" fill="none" xmlns="http://www.w3.org/2000/svg">
<path d="M3.29061 5.82406C2.66577 6.4489 2.66577 7.45456 2.66577 9.46589C2.66577 11.4772 2.66577 12.4829 3.29061 13.1077C3.91545 13.7326 4.92111 13.7326 6.93244 13.7326H9.06577C11.0771 13.7326 12.0828 13.7326 12.7076 13.1077C13.3324 12.4829 13.3324 11.4772 13.3324 9.46589C13.3324 7.45456 13.3324 6.4489 12.7076 5.82406C12.0828 5.19922 11.0771 5.19922 9.06577 5.19922H6.93244C4.92111 5.19922 3.91545 5.19922 3.29061 5.82406Z" fill="#2CB87B"/>
<path d="M10.1379 7.33424C10.4324 7.33424 10.6712 7.09546 10.6712 6.80091C10.6712 6.50636 10.4324 6.26758 10.1379 6.26758C9.84334 6.26758 9.60456 6.50636 9.60456 6.80091C9.60456 7.09546 9.84334 7.33424 10.1379 7.33424Z" fill="#2196F3"/>
<path d="M6.40456 6.80091C6.40456 7.09546 6.16578 7.33424 5.87122 7.33424C5.57667 7.33424 5.33789 7.09546 5.33789 6.80091C5.33789 6.50636 5.57667 6.26758 5.87122 6.26758C6.16578 6.26758 6.40456 6.50636 6.40456 6.80091Z" fill="#2196F3"/>
<path d="M8.03177 2.66577H7.9763C7.49712 2.66576 7.09753 2.66574 6.78032 2.70839C6.44549 2.75341 6.1432 2.85243 5.90028 3.09535C5.65736 3.33827 5.55834 3.64056 5.51332 3.97538C5.47068 4.2926 5.47069 4.69217 5.4707 5.17135L5.4707 5.21282C5.71445 5.20485 5.98022 5.20151 6.2707 5.20011V5.19911C6.2707 4.68497 6.27155 4.3396 6.30619 4.08198C6.33928 3.83587 6.39646 3.73054 6.46597 3.66104C6.53547 3.59153 6.6408 3.53435 6.88691 3.50126C7.14453 3.46662 7.4899 3.46577 8.00404 3.46577C8.51818 3.46577 8.86354 3.46662 9.12116 3.50126C9.36727 3.53435 9.47261 3.59153 9.54211 3.66104C9.61161 3.73054 9.6688 3.83587 9.70188 4.08198C9.73652 4.3396 9.73737 4.68497 9.73737 5.19911V5.20011C10.0279 5.20151 10.2936 5.20485 10.5374 5.21282V5.17138C10.5374 4.69219 10.5374 4.2926 10.4947 3.97538C10.4497 3.64056 10.3507 3.33827 10.1078 3.09535C9.86488 2.85243 9.56258 2.75341 9.22776 2.70839C8.91055 2.66574 8.51095 2.66576 8.03177 2.66577Z" fill="#2196F3"/>
</svg>
