<svg width="16" height="16" viewBox="0 0 16 16" fill="none" xmlns="http://www.w3.org/2000/svg">
<path d="M4.21387 6.72842C4.21387 6.51381 4.38648 6.33984 4.59941 6.33984H6.65563C6.86856 6.33984 7.04117 6.51381 7.04117 6.72842C7.04117 6.94302 6.86856 7.11699 6.65563 7.11699H4.59941C4.38648 7.11699 4.21387 6.94302 4.21387 6.72842Z" fill="#2CB87B"/>
<path fill-rule="evenodd" clip-rule="evenodd" d="M12.9071 6.9356C12.8739 6.93357 12.8377 6.93358 12.8002 6.9336L12.7909 6.9336H11.3212C10.1098 6.9336 9.07324 7.8595 9.07324 9.06693C9.07324 10.2744 10.1098 11.2003 11.3212 11.2003H12.7909L12.8002 11.2003C12.8377 11.2003 12.8739 11.2003 12.9071 11.1983C13.3991 11.1681 13.8343 10.7942 13.8709 10.272C13.8733 10.2377 13.8733 10.2008 13.8732 10.1666L13.8732 10.1573V7.97656L13.8732 7.96727C13.8733 7.93306 13.8733 7.89615 13.8709 7.8619C13.8343 7.33967 13.3991 6.96577 12.9071 6.9356ZM11.1909 9.63581C11.5028 9.63581 11.7556 9.38111 11.7556 9.06692C11.7556 8.75273 11.5028 8.49803 11.1909 8.49803C10.879 8.49803 10.6262 8.75273 10.6262 9.06692C10.6262 9.38111 10.879 9.63581 11.1909 9.63581Z" fill="#2196F3"/>
<path d="M12.8744 6.93506C12.8744 6.3054 12.8515 5.62996 12.449 5.14575C12.4102 5.09901 12.3688 5.05363 12.3247 5.00957C11.9256 4.61045 11.4195 4.43332 10.7942 4.34925C10.1866 4.26756 9.4103 4.26757 8.43017 4.26758H7.30332C6.32319 4.26757 5.54684 4.26756 4.93927 4.34925C4.31397 4.43332 3.80787 4.61045 3.40874 5.00958C3.00962 5.4087 2.83249 5.91481 2.74842 6.5401C2.66673 7.14768 2.66674 7.92401 2.66675 8.90415V8.96433C2.66674 9.94447 2.66673 10.7208 2.74842 11.3284C2.83249 11.9537 3.00962 12.4598 3.40874 12.8589C3.80787 13.258 4.31397 13.4352 4.93927 13.5192C5.54684 13.6009 6.32317 13.6009 7.3033 13.6009H8.43016C9.41028 13.6009 10.1866 13.6009 10.7942 13.5192C11.4195 13.4352 11.9256 13.258 12.3247 12.8589C12.4338 12.7498 12.5264 12.6326 12.6052 12.5068C12.8454 12.1231 12.8744 11.6528 12.8744 11.2001C12.8487 11.2009 12.8216 11.2009 12.7937 11.2009L11.3147 11.2009C10.1033 11.2009 9.06674 10.275 9.06674 9.06758C9.06674 7.86015 10.1033 6.93425 11.3147 6.93425L12.7937 6.93425C12.8216 6.93424 12.8487 6.93423 12.8744 6.93506Z" fill="#2CB87B"/>
<path d="M6.99306 2.9709L5.87229 3.72845L4.94788 4.34703C5.555 4.26576 6.33038 4.26576 7.30886 4.26577H8.43572C9.41585 4.26576 10.1922 4.26576 10.7998 4.34744C10.922 4.36388 11.0396 4.38386 11.1528 4.40837L10.1389 3.73244L9.01228 2.9709C8.41038 2.56406 7.59496 2.56406 6.99306 2.9709Z" fill="#2196F3"/>
</svg>
