<svg width="16" height="16" viewBox="0 0 16 16" fill="none" xmlns="http://www.w3.org/2000/svg">
<path fill-rule="evenodd" clip-rule="evenodd" d="M5.86599 2.7998C3.87777 2.7998 2.26599 4.41158 2.26599 6.3998C2.26599 7.32157 2.61295 8.16326 3.18276 8.7999C3.33009 8.96451 3.58297 8.97852 3.74758 8.83119C3.91219 8.68386 3.92619 8.43098 3.77886 8.26637C3.33526 7.77073 3.06599 7.11719 3.06599 6.3998C3.06599 4.85341 4.31959 3.5998 5.86599 3.5998H7.99932C9.54572 3.5998 10.7993 4.85341 10.7993 6.3998C10.7993 7.9462 9.54572 9.1998 7.99932 9.1998H6.93266C6.71174 9.1998 6.53266 9.37889 6.53266 9.5998C6.53266 9.82072 6.71174 9.9998 6.93266 9.9998H7.99932C9.98755 9.9998 11.5993 8.38803 11.5993 6.3998C11.5993 4.41158 9.98755 2.7998 7.99932 2.7998H5.86599Z" fill="#413B89"/>
<path d="M5.19783 9.59878C5.19783 8.05238 6.45143 6.79878 7.99783 6.79878H9.06449C9.28541 6.79878 9.46449 6.61969 9.46449 6.39878C9.46449 6.17787 9.28541 5.99878 9.06449 5.99878H7.99783C6.0096 5.99878 4.39783 7.61055 4.39783 9.59878C4.39783 11.587 6.0096 13.1988 7.99783 13.1988H10.1312C12.1194 13.1988 13.7312 11.587 13.7312 9.59878C13.7312 8.67701 13.3842 7.83532 12.8144 7.19868C12.6671 7.03407 12.4142 7.02006 12.2496 7.16739C12.085 7.31472 12.071 7.5676 12.2183 7.73221C12.6619 8.22785 12.9312 8.88139 12.9312 9.59878C12.9312 11.1452 11.6776 12.3988 10.1312 12.3988H7.99783C6.45143 12.3988 5.19783 11.1452 5.19783 9.59878Z" fill="#FFEDDE"/>
</svg>
