<svg width="30" height="30" viewBox="0 0 30 30" fill="none" xmlns="http://www.w3.org/2000/svg">
<path opacity="0.5" d="M15.7949 5H13.7949C11.9093 5 10.9665 5 10.3807 5.58579C9.79492 6.17157 9.79492 7.11438 9.79492 9V11V12.5H19.7949V11V9C19.7949 7.11438 19.7949 6.17157 19.2091 5.58579C18.6233 5 17.6805 5 15.7949 5Z" fill="white"/>
<path fill-rule="evenodd" clip-rule="evenodd" d="M16.2304 8.78311C15.3352 8.29495 14.2533 8.29495 13.358 8.78311L8.56381 11.3973C7.59982 11.9229 7 12.9332 7 14.0312V18.9688C7 20.0668 7.59982 21.0771 8.56381 21.6027L13.358 24.2169C14.2533 24.705 15.3352 24.705 16.2304 24.2169L21.0246 21.6027C21.9886 21.0771 22.5885 20.0668 22.5885 18.9688V14.0312C22.5885 12.9332 21.9886 11.9229 21.0246 11.3973L16.2304 8.78311ZM14.7944 13.5C14.5104 13.5 14.3204 13.8408 13.9404 14.5225L13.8421 14.6989C13.7341 14.8926 13.6801 14.9894 13.5959 15.0533C13.5117 15.1172 13.4069 15.141 13.1972 15.1884L13.0063 15.2316C12.2684 15.3986 11.8994 15.482 11.8117 15.7643C11.7239 16.0466 11.9754 16.3407 12.4785 16.929L12.6086 17.0812C12.7516 17.2483 12.823 17.3319 12.8552 17.4353C12.8873 17.5387 12.8765 17.6502 12.8549 17.8733L12.8353 18.0763C12.7592 18.8612 12.7212 19.2536 12.951 19.4281C13.1808 19.6025 13.5262 19.4435 14.2171 19.1254L14.3959 19.0431C14.5922 18.9527 14.6904 18.9075 14.7944 18.9075C14.8985 18.9075 14.9967 18.9527 15.193 19.0431L15.3717 19.1254C16.0626 19.4435 16.4081 19.6025 16.6379 19.4281C16.8677 19.2536 16.8297 18.8612 16.7536 18.0763L16.7339 17.8733C16.7123 17.6502 16.7015 17.5387 16.7337 17.4353C16.7658 17.3319 16.8373 17.2483 16.9802 17.0812L17.1104 16.929C17.6135 16.3407 17.865 16.0466 17.7772 15.7643C17.6894 15.482 17.3205 15.3986 16.5826 15.2316L16.3917 15.1884C16.182 15.141 16.0771 15.1172 15.993 15.0533C15.9088 14.9894 15.8548 14.8926 15.7468 14.6989L15.6485 14.5225C15.2685 13.8408 15.0785 13.5 14.7944 13.5Z" fill="white"/>
</svg>
